<svg xmlns="http://www.w3.org/2000/svg" viewBox="0 0 900 400" font-family="-apple-system,Segoe UI,Helvetica,Arial,sans-serif">
<rect width="900" height="400" fill="rgba(0,0,0,0)" rx="12"/>
<text x="450" y="24" text-anchor="middle" font-size="15" font-weight="600" fill="#1f2328">dsh-kimino-theme · growth</text>
<circle cx="300" cy="24" r="0"/>
<text x="86" y="24" font-size="12" fill="#1f6feb">downloads (cumulative)</text>
<text x="814" y="24" text-anchor="end" font-size="12" fill="#8957e5">stars</text>
<line x1="86" y1="46" x2="814" y2="46" stroke="#8b949e" stroke-opacity="0.22" stroke-width="1"/>
<text x="76" y="50" text-anchor="end" font-size="11" fill="#1f6feb">202</text>
<text x="824" y="50" text-anchor="start" font-size="11" fill="#8957e5">32</text>
<line x1="86" y1="123" x2="814" y2="123" stroke="#8b949e" stroke-opacity="0.22" stroke-width="1"/>
<text x="76" y="127" text-anchor="end" font-size="11" fill="#1f6feb">151</text>
<text x="824" y="127" text-anchor="start" font-size="11" fill="#8957e5">24</text>
<line x1="86" y1="200" x2="814" y2="200" stroke="#8b949e" stroke-opacity="0.22" stroke-width="1"/>
<text x="76" y="204" text-anchor="end" font-size="11" fill="#1f6feb">101</text>
<text x="824" y="204" text-anchor="start" font-size="11" fill="#8957e5">16</text>
<line x1="86" y1="277" x2="814" y2="277" stroke="#8b949e" stroke-opacity="0.22" stroke-width="1"/>
<text x="76" y="281" text-anchor="end" font-size="11" fill="#1f6feb">50</text>
<text x="824" y="281" text-anchor="start" font-size="11" fill="#8957e5">8</text>
<line x1="86" y1="354" x2="814" y2="354" stroke="#8b949e" stroke-opacity="0.22" stroke-width="1"/>
<text x="76" y="358" text-anchor="end" font-size="11" fill="#1f6feb">0</text>
<text x="824" y="358" text-anchor="start" font-size="11" fill="#8957e5">0</text>
<text x="86.0" y="374" text-anchor="middle" font-size="11" fill="#8b949e">08-16</text><text x="231.6" y="374" text-anchor="middle" font-size="11" fill="#8b949e">08-19</text><text x="377.2" y="374" text-anchor="middle" font-size="11" fill="#8b949e">08-22</text><text x="522.8" y="374" text-anchor="middle" font-size="11" fill="#8b949e">08-25</text><text x="668.4" y="374" text-anchor="middle" font-size="11" fill="#8b949e">08-28</text><text x="814.0" y="374" text-anchor="middle" font-size="11" fill="#8b949e">08-31</text>
<polyline points="86.0,354.0 134.5,354.0 183.1,354.0 231.6,354.0 280.1,354.0 328.7,354.0 377.2,354.0 425.7,354.0 474.3,354.0 522.8,354.0 571.3,186.2 619.9,145.1 668.4,110.0 716.9,68.8 765.5,68.8 814.0,68.8" fill="none" stroke="#1f6feb" stroke-width="2.4" stroke-linejoin="round" stroke-linecap="round"/>
<polyline points="86.0,354.0 134.5,344.4 183.1,277.5 231.6,220.1 280.1,201.0 328.7,191.4 377.2,181.8 425.7,172.3 474.3,162.7 522.8,134.0 571.3,134.0 619.9,124.4 668.4,105.3 716.9,95.7 765.5,95.7 814.0,86.2" fill="none" stroke="#8957e5" stroke-width="2.4" stroke-linejoin="round" stroke-linecap="round" stroke-dasharray="1 0"/>
<circle cx="86.0" cy="354.0" r="2.6" fill="#1f6feb"/><circle cx="86.0" cy="354.0" r="2.6" fill="#8957e5"/><circle cx="134.5" cy="354.0" r="2.6" fill="#1f6feb"/><circle cx="134.5" cy="344.4" r="2.6" fill="#8957e5"/><circle cx="183.1" cy="354.0" r="2.6" fill="#1f6feb"/><circle cx="183.1" cy="277.5" r="2.6" fill="#8957e5"/><circle cx="231.6" cy="354.0" r="2.6" fill="#1f6feb"/><circle cx="231.6" cy="220.1" r="2.6" fill="#8957e5"/><circle cx="280.1" cy="354.0" r="2.6" fill="#1f6feb"/><circle cx="280.1" cy="201.0" r="2.6" fill="#8957e5"/><circle cx="328.7" cy="354.0" r="2.6" fill="#1f6feb"/><circle cx="328.7" cy="191.4" r="2.6" fill="#8957e5"/><circle cx="377.2" cy="354.0" r="2.6" fill="#1f6feb"/><circle cx="377.2" cy="181.8" r="2.6" fill="#8957e5"/><circle cx="425.7" cy="354.0" r="2.6" fill="#1f6feb"/><circle cx="425.7" cy="172.3" r="2.6" fill="#8957e5"/><circle cx="474.3" cy="354.0" r="2.6" fill="#1f6feb"/><circle cx="474.3" cy="162.7" r="2.6" fill="#8957e5"/><circle cx="522.8" cy="354.0" r="2.6" fill="#1f6feb"/><circle cx="522.8" cy="134.0" r="2.6" fill="#8957e5"/><circle cx="571.3" cy="186.2" r="2.6" fill="#1f6feb"/><circle cx="571.3" cy="134.0" r="2.6" fill="#8957e5"/><circle cx="619.9" cy="145.1" r="2.6" fill="#1f6feb"/><circle cx="619.9" cy="124.4" r="2.6" fill="#8957e5"/><circle cx="668.4" cy="110.0" r="2.6" fill="#1f6feb"/><circle cx="668.4" cy="105.3" r="2.6" fill="#8957e5"/><circle cx="716.9" cy="68.8" r="2.6" fill="#1f6feb"/><circle cx="716.9" cy="95.7" r="2.6" fill="#8957e5"/><circle cx="765.5" cy="68.8" r="2.6" fill="#1f6feb"/><circle cx="765.5" cy="95.7" r="2.6" fill="#8957e5"/><circle cx="814.0" cy="68.8" r="2.6" fill="#1f6feb"/><circle cx="814.0" cy="86.2" r="2.6" fill="#8957e5"/>
<text x="814.0" y="58.8" text-anchor="middle" font-size="12" font-weight="600" fill="#1f6feb">187</text>
<text x="814.0" y="106.2" text-anchor="middle" font-size="12" font-weight="600" fill="#8957e5">28</text>
</svg>
