<svg xmlns="http://www.w3.org/2000/svg" viewBox="0 0 900 400" font-family="-apple-system,Segoe UI,Helvetica,Arial,sans-serif">
<rect width="900" height="400" fill="rgba(0,0,0,0)" rx="12"/>
<text x="450" y="24" text-anchor="middle" font-size="15" font-weight="600" fill="#1f2328">dsh-kimino-theme · growth</text>
<circle cx="300" cy="24" r="0"/>
<text x="86" y="24" font-size="12" fill="#1f6feb">downloads (cumulative)</text>
<text x="814" y="24" text-anchor="end" font-size="12" fill="#8957e5">stars</text>
<line x1="86" y1="46" x2="814" y2="46" stroke="#8b949e" stroke-opacity="0.22" stroke-width="1"/>
<text x="76" y="50" text-anchor="end" font-size="11" fill="#1f6feb">1.4k</text>
<text x="824" y="50" text-anchor="start" font-size="11" fill="#8957e5">46</text>
<line x1="86" y1="123" x2="814" y2="123" stroke="#8b949e" stroke-opacity="0.22" stroke-width="1"/>
<text x="76" y="127" text-anchor="end" font-size="11" fill="#1f6feb">1k</text>
<text x="824" y="127" text-anchor="start" font-size="11" fill="#8957e5">35</text>
<line x1="86" y1="200" x2="814" y2="200" stroke="#8b949e" stroke-opacity="0.22" stroke-width="1"/>
<text x="76" y="204" text-anchor="end" font-size="11" fill="#1f6feb">697</text>
<text x="824" y="204" text-anchor="start" font-size="11" fill="#8957e5">23</text>
<line x1="86" y1="277" x2="814" y2="277" stroke="#8b949e" stroke-opacity="0.22" stroke-width="1"/>
<text x="76" y="281" text-anchor="end" font-size="11" fill="#1f6feb">348</text>
<text x="824" y="281" text-anchor="start" font-size="11" fill="#8957e5">12</text>
<line x1="86" y1="354" x2="814" y2="354" stroke="#8b949e" stroke-opacity="0.22" stroke-width="1"/>
<text x="76" y="358" text-anchor="end" font-size="11" fill="#1f6feb">0</text>
<text x="824" y="358" text-anchor="start" font-size="11" fill="#8957e5">0</text>
<text x="86.0" y="374" text-anchor="middle" font-size="11" fill="#8b949e">08-16</text><text x="215.4" y="374" text-anchor="middle" font-size="11" fill="#8b949e">08-24</text><text x="344.8" y="374" text-anchor="middle" font-size="11" fill="#8b949e">09-01</text><text x="474.3" y="374" text-anchor="middle" font-size="11" fill="#8b949e">09-09</text><text x="603.7" y="374" text-anchor="middle" font-size="11" fill="#8b949e">09-17</text><text x="733.1" y="374" text-anchor="middle" font-size="11" fill="#8b949e">09-25</text><text x="814.0" y="374" text-anchor="middle" font-size="11" fill="#8b949e">09-30</text>
<polyline points="86.0,354.0 102.2,354.0 118.4,354.0 134.5,354.0 150.7,354.0 166.9,354.0 183.1,354.0 199.2,354.0 215.4,354.0 231.6,354.0 247.8,329.7 264.0,323.7 280.1,318.6 296.3,312.7 312.5,307.1 328.7,302.0 344.8,292.5 361.0,286.8 377.2,286.8 393.4,281.7 409.6,276.4 425.7,270.7 441.9,270.7 458.1,270.7 474.3,263.8 490.4,256.1 506.6,239.3 522.8,231.3 539.0,222.2 555.2,216.9 571.3,216.9 587.5,209.2 603.7,199.2 619.9,192.6 636.0,186.6 652.2,180.2 668.4,172.5 684.6,165.9 700.8,161.0 716.9,154.6 733.1,148.6 749.3,140.7 765.5,130.3 781.6,68.8 797.8,68.8 814.0,68.8" fill="none" stroke="#1f6feb" stroke-width="2.4" stroke-linejoin="round" stroke-linecap="round"/>
<polyline points="86.0,354.0 102.2,347.3 118.4,300.4 134.5,260.3 150.7,246.9 166.9,240.2 183.1,233.5 199.2,226.8 215.4,220.1 231.6,200.0 247.8,200.0 264.0,193.3 280.1,179.9 296.3,173.2 312.5,173.2 328.7,166.5 344.8,166.5 361.0,159.8 377.2,159.8 393.4,153.1 409.6,146.4 425.7,146.4 441.9,146.4 458.1,146.4 474.3,146.4 490.4,146.4 506.6,139.7 522.8,139.7 539.0,126.3 555.2,126.3 571.3,126.3 587.5,133.0 603.7,133.0 619.9,126.3 636.0,119.7 652.2,113.0 668.4,113.0 684.6,113.0 700.8,113.0 716.9,106.3 733.1,99.6 749.3,92.9 765.5,86.2 781.6,86.2 797.8,86.2 814.0,86.2" fill="none" stroke="#8957e5" stroke-width="2.4" stroke-linejoin="round" stroke-linecap="round" stroke-dasharray="1 0"/>
<circle cx="86.0" cy="354.0" r="2.6" fill="#1f6feb"/><circle cx="86.0" cy="354.0" r="2.6" fill="#8957e5"/><circle cx="102.2" cy="354.0" r="2.6" fill="#1f6feb"/><circle cx="102.2" cy="347.3" r="2.6" fill="#8957e5"/><circle cx="118.4" cy="354.0" r="2.6" fill="#1f6feb"/><circle cx="118.4" cy="300.4" r="2.6" fill="#8957e5"/><circle cx="134.5" cy="354.0" r="2.6" fill="#1f6feb"/><circle cx="134.5" cy="260.3" r="2.6" fill="#8957e5"/><circle cx="150.7" cy="354.0" r="2.6" fill="#1f6feb"/><circle cx="150.7" cy="246.9" r="2.6" fill="#8957e5"/><circle cx="166.9" cy="354.0" r="2.6" fill="#1f6feb"/><circle cx="166.9" cy="240.2" r="2.6" fill="#8957e5"/><circle cx="183.1" cy="354.0" r="2.6" fill="#1f6feb"/><circle cx="183.1" cy="233.5" r="2.6" fill="#8957e5"/><circle cx="199.2" cy="354.0" r="2.6" fill="#1f6feb"/><circle cx="199.2" cy="226.8" r="2.6" fill="#8957e5"/><circle cx="215.4" cy="354.0" r="2.6" fill="#1f6feb"/><circle cx="215.4" cy="220.1" r="2.6" fill="#8957e5"/><circle cx="231.6" cy="354.0" r="2.6" fill="#1f6feb"/><circle cx="231.6" cy="200.0" r="2.6" fill="#8957e5"/><circle cx="247.8" cy="329.7" r="2.6" fill="#1f6feb"/><circle cx="247.8" cy="200.0" r="2.6" fill="#8957e5"/><circle cx="264.0" cy="323.7" r="2.6" fill="#1f6feb"/><circle cx="264.0" cy="193.3" r="2.6" fill="#8957e5"/><circle cx="280.1" cy="318.6" r="2.6" fill="#1f6feb"/><circle cx="280.1" cy="179.9" r="2.6" fill="#8957e5"/><circle cx="296.3" cy="312.7" r="2.6" fill="#1f6feb"/><circle cx="296.3" cy="173.2" r="2.6" fill="#8957e5"/><circle cx="312.5" cy="307.1" r="2.6" fill="#1f6feb"/><circle cx="312.5" cy="173.2" r="2.6" fill="#8957e5"/><circle cx="328.7" cy="302.0" r="2.6" fill="#1f6feb"/><circle cx="328.7" cy="166.5" r="2.6" fill="#8957e5"/><circle cx="344.8" cy="292.5" r="2.6" fill="#1f6feb"/><circle cx="344.8" cy="166.5" r="2.6" fill="#8957e5"/><circle cx="361.0" cy="286.8" r="2.6" fill="#1f6feb"/><circle cx="361.0" cy="159.8" r="2.6" fill="#8957e5"/><circle cx="377.2" cy="286.8" r="2.6" fill="#1f6feb"/><circle cx="377.2" cy="159.8" r="2.6" fill="#8957e5"/><circle cx="393.4" cy="281.7" r="2.6" fill="#1f6feb"/><circle cx="393.4" cy="153.1" r="2.6" fill="#8957e5"/><circle cx="409.6" cy="276.4" r="2.6" fill="#1f6feb"/><circle cx="409.6" cy="146.4" r="2.6" fill="#8957e5"/><circle cx="425.7" cy="270.7" r="2.6" fill="#1f6feb"/><circle cx="425.7" cy="146.4" r="2.6" fill="#8957e5"/><circle cx="441.9" cy="270.7" r="2.6" fill="#1f6feb"/><circle cx="441.9" cy="146.4" r="2.6" fill="#8957e5"/><circle cx="458.1" cy="270.7" r="2.6" fill="#1f6feb"/><circle cx="458.1" cy="146.4" r="2.6" fill="#8957e5"/><circle cx="474.3" cy="263.8" r="2.6" fill="#1f6feb"/><circle cx="474.3" cy="146.4" r="2.6" fill="#8957e5"/><circle cx="490.4" cy="256.1" r="2.6" fill="#1f6feb"/><circle cx="490.4" cy="146.4" r="2.6" fill="#8957e5"/><circle cx="506.6" cy="239.3" r="2.6" fill="#1f6feb"/><circle cx="506.6" cy="139.7" r="2.6" fill="#8957e5"/><circle cx="522.8" cy="231.3" r="2.6" fill="#1f6feb"/><circle cx="522.8" cy="139.7" r="2.6" fill="#8957e5"/><circle cx="539.0" cy="222.2" r="2.6" fill="#1f6feb"/><circle cx="539.0" cy="126.3" r="2.6" fill="#8957e5"/><circle cx="555.2" cy="216.9" r="2.6" fill="#1f6feb"/><circle cx="555.2" cy="126.3" r="2.6" fill="#8957e5"/><circle cx="571.3" cy="216.9" r="2.6" fill="#1f6feb"/><circle cx="571.3" cy="126.3" r="2.6" fill="#8957e5"/><circle cx="587.5" cy="209.2" r="2.6" fill="#1f6feb"/><circle cx="587.5" cy="133.0" r="2.6" fill="#8957e5"/><circle cx="603.7" cy="199.2" r="2.6" fill="#1f6feb"/><circle cx="603.7" cy="133.0" r="2.6" fill="#8957e5"/><circle cx="619.9" cy="192.6" r="2.6" fill="#1f6feb"/><circle cx="619.9" cy="126.3" r="2.6" fill="#8957e5"/><circle cx="636.0" cy="186.6" r="2.6" fill="#1f6feb"/><circle cx="636.0" cy="119.7" r="2.6" fill="#8957e5"/><circle cx="652.2" cy="180.2" r="2.6" fill="#1f6feb"/><circle cx="652.2" cy="113.0" r="2.6" fill="#8957e5"/><circle cx="668.4" cy="172.5" r="2.6" fill="#1f6feb"/><circle cx="668.4" cy="113.0" r="2.6" fill="#8957e5"/><circle cx="684.6" cy="165.9" r="2.6" fill="#1f6feb"/><circle cx="684.6" cy="113.0" r="2.6" fill="#8957e5"/><circle cx="700.8" cy="161.0" r="2.6" fill="#1f6feb"/><circle cx="700.8" cy="113.0" r="2.6" fill="#8957e5"/><circle cx="716.9" cy="154.6" r="2.6" fill="#1f6feb"/><circle cx="716.9" cy="106.3" r="2.6" fill="#8957e5"/><circle cx="733.1" cy="148.6" r="2.6" fill="#1f6feb"/><circle cx="733.1" cy="99.6" r="2.6" fill="#8957e5"/><circle cx="749.3" cy="140.7" r="2.6" fill="#1f6feb"/><circle cx="749.3" cy="92.9" r="2.6" fill="#8957e5"/><circle cx="765.5" cy="130.3" r="2.6" fill="#1f6feb"/><circle cx="765.5" cy="86.2" r="2.6" fill="#8957e5"/><circle cx="781.6" cy="68.8" r="2.6" fill="#1f6feb"/><circle cx="781.6" cy="86.2" r="2.6" fill="#8957e5"/><circle cx="797.8" cy="68.8" r="2.6" fill="#1f6feb"/><circle cx="797.8" cy="86.2" r="2.6" fill="#8957e5"/><circle cx="814.0" cy="68.8" r="2.6" fill="#1f6feb"/><circle cx="814.0" cy="86.2" r="2.6" fill="#8957e5"/>
<text x="814.0" y="58.8" text-anchor="middle" font-size="12" font-weight="600" fill="#1f6feb">1.3k</text>
<text x="814.0" y="106.2" text-anchor="middle" font-size="12" font-weight="600" fill="#8957e5">40</text>
</svg>
