<svg xmlns="http://www.w3.org/2000/svg" viewBox="0 0 900 400" font-family="-apple-system,Segoe UI,Helvetica,Arial,sans-serif">
<rect width="900" height="400" fill="rgba(0,0,0,0)" rx="12"/>
<text x="450" y="24" text-anchor="middle" font-size="15" font-weight="600" fill="#1f2328">dsh-kimino-theme · growth</text>
<circle cx="300" cy="24" r="0"/>
<text x="86" y="24" font-size="12" fill="#1f6feb">downloads (cumulative)</text>
<text x="814" y="24" text-anchor="end" font-size="12" fill="#8957e5">stars</text>
<line x1="86" y1="46" x2="814" y2="46" stroke="#8b949e" stroke-opacity="0.22" stroke-width="1"/>
<text x="76" y="50" text-anchor="end" font-size="11" fill="#1f6feb">947</text>
<text x="824" y="50" text-anchor="start" font-size="11" fill="#8957e5">46</text>
<line x1="86" y1="123" x2="814" y2="123" stroke="#8b949e" stroke-opacity="0.22" stroke-width="1"/>
<text x="76" y="127" text-anchor="end" font-size="11" fill="#1f6feb">710</text>
<text x="824" y="127" text-anchor="start" font-size="11" fill="#8957e5">35</text>
<line x1="86" y1="200" x2="814" y2="200" stroke="#8b949e" stroke-opacity="0.22" stroke-width="1"/>
<text x="76" y="204" text-anchor="end" font-size="11" fill="#1f6feb">474</text>
<text x="824" y="204" text-anchor="start" font-size="11" fill="#8957e5">23</text>
<line x1="86" y1="277" x2="814" y2="277" stroke="#8b949e" stroke-opacity="0.22" stroke-width="1"/>
<text x="76" y="281" text-anchor="end" font-size="11" fill="#1f6feb">237</text>
<text x="824" y="281" text-anchor="start" font-size="11" fill="#8957e5">12</text>
<line x1="86" y1="354" x2="814" y2="354" stroke="#8b949e" stroke-opacity="0.22" stroke-width="1"/>
<text x="76" y="358" text-anchor="end" font-size="11" fill="#1f6feb">0</text>
<text x="824" y="358" text-anchor="start" font-size="11" fill="#8957e5">0</text>
<text x="86.0" y="374" text-anchor="middle" font-size="11" fill="#8b949e">08-16</text><text x="221.4" y="374" text-anchor="middle" font-size="11" fill="#8b949e">08-24</text><text x="356.9" y="374" text-anchor="middle" font-size="11" fill="#8b949e">09-01</text><text x="492.3" y="374" text-anchor="middle" font-size="11" fill="#8b949e">09-09</text><text x="627.8" y="374" text-anchor="middle" font-size="11" fill="#8b949e">09-17</text><text x="763.2" y="374" text-anchor="middle" font-size="11" fill="#8b949e">09-25</text><text x="814.0" y="374" text-anchor="middle" font-size="11" fill="#8b949e">09-28</text>
<polyline points="86.0,354.0 102.9,354.0 119.9,354.0 136.8,354.0 153.7,354.0 170.7,354.0 187.6,354.0 204.5,354.0 221.4,354.0 238.4,354.0 255.3,318.2 272.2,309.4 289.2,302.0 306.1,293.2 323.0,285.1 340.0,277.6 356.9,277.6 373.8,269.1 390.7,269.1 407.7,261.6 424.6,253.8 441.5,245.4 458.5,245.4 475.4,245.4 492.3,235.3 509.3,223.9 526.2,199.2 543.1,187.5 560.0,174.2 577.0,166.4 593.9,166.4 610.8,155.0 627.8,155.0 644.7,145.2 661.6,136.5 678.6,127.0 695.5,115.6 712.4,105.9 729.3,98.7 746.3,89.3 763.2,80.5 780.1,68.8 797.1,68.8 814.0,68.8" fill="none" stroke="#1f6feb" stroke-width="2.4" stroke-linejoin="round" stroke-linecap="round"/>
<polyline points="86.0,354.0 102.9,347.3 119.9,300.4 136.8,260.3 153.7,246.9 170.7,240.2 187.6,233.5 204.5,226.8 221.4,220.1 238.4,200.0 255.3,200.0 272.2,193.3 289.2,179.9 306.1,173.2 323.0,173.2 340.0,166.5 356.9,166.5 373.8,159.8 390.7,159.8 407.7,153.1 424.6,146.4 441.5,146.4 458.5,146.4 475.4,146.4 492.3,146.4 509.3,146.4 526.2,139.7 543.1,139.7 560.0,126.3 577.0,126.3 593.9,126.3 610.8,133.0 627.8,133.0 644.7,126.3 661.6,119.7 678.6,113.0 695.5,113.0 712.4,113.0 729.3,113.0 746.3,106.3 763.2,99.6 780.1,92.9 797.1,86.2 814.0,86.2" fill="none" stroke="#8957e5" stroke-width="2.4" stroke-linejoin="round" stroke-linecap="round" stroke-dasharray="1 0"/>
<circle cx="86.0" cy="354.0" r="2.6" fill="#1f6feb"/><circle cx="86.0" cy="354.0" r="2.6" fill="#8957e5"/><circle cx="102.9" cy="354.0" r="2.6" fill="#1f6feb"/><circle cx="102.9" cy="347.3" r="2.6" fill="#8957e5"/><circle cx="119.9" cy="354.0" r="2.6" fill="#1f6feb"/><circle cx="119.9" cy="300.4" r="2.6" fill="#8957e5"/><circle cx="136.8" cy="354.0" r="2.6" fill="#1f6feb"/><circle cx="136.8" cy="260.3" r="2.6" fill="#8957e5"/><circle cx="153.7" cy="354.0" r="2.6" fill="#1f6feb"/><circle cx="153.7" cy="246.9" r="2.6" fill="#8957e5"/><circle cx="170.7" cy="354.0" r="2.6" fill="#1f6feb"/><circle cx="170.7" cy="240.2" r="2.6" fill="#8957e5"/><circle cx="187.6" cy="354.0" r="2.6" fill="#1f6feb"/><circle cx="187.6" cy="233.5" r="2.6" fill="#8957e5"/><circle cx="204.5" cy="354.0" r="2.6" fill="#1f6feb"/><circle cx="204.5" cy="226.8" r="2.6" fill="#8957e5"/><circle cx="221.4" cy="354.0" r="2.6" fill="#1f6feb"/><circle cx="221.4" cy="220.1" r="2.6" fill="#8957e5"/><circle cx="238.4" cy="354.0" r="2.6" fill="#1f6feb"/><circle cx="238.4" cy="200.0" r="2.6" fill="#8957e5"/><circle cx="255.3" cy="318.2" r="2.6" fill="#1f6feb"/><circle cx="255.3" cy="200.0" r="2.6" fill="#8957e5"/><circle cx="272.2" cy="309.4" r="2.6" fill="#1f6feb"/><circle cx="272.2" cy="193.3" r="2.6" fill="#8957e5"/><circle cx="289.2" cy="302.0" r="2.6" fill="#1f6feb"/><circle cx="289.2" cy="179.9" r="2.6" fill="#8957e5"/><circle cx="306.1" cy="293.2" r="2.6" fill="#1f6feb"/><circle cx="306.1" cy="173.2" r="2.6" fill="#8957e5"/><circle cx="323.0" cy="285.1" r="2.6" fill="#1f6feb"/><circle cx="323.0" cy="173.2" r="2.6" fill="#8957e5"/><circle cx="340.0" cy="277.6" r="2.6" fill="#1f6feb"/><circle cx="340.0" cy="166.5" r="2.6" fill="#8957e5"/><circle cx="356.9" cy="277.6" r="2.6" fill="#1f6feb"/><circle cx="356.9" cy="166.5" r="2.6" fill="#8957e5"/><circle cx="373.8" cy="269.1" r="2.6" fill="#1f6feb"/><circle cx="373.8" cy="159.8" r="2.6" fill="#8957e5"/><circle cx="390.7" cy="269.1" r="2.6" fill="#1f6feb"/><circle cx="390.7" cy="159.8" r="2.6" fill="#8957e5"/><circle cx="407.7" cy="261.6" r="2.6" fill="#1f6feb"/><circle cx="407.7" cy="153.1" r="2.6" fill="#8957e5"/><circle cx="424.6" cy="253.8" r="2.6" fill="#1f6feb"/><circle cx="424.6" cy="146.4" r="2.6" fill="#8957e5"/><circle cx="441.5" cy="245.4" r="2.6" fill="#1f6feb"/><circle cx="441.5" cy="146.4" r="2.6" fill="#8957e5"/><circle cx="458.5" cy="245.4" r="2.6" fill="#1f6feb"/><circle cx="458.5" cy="146.4" r="2.6" fill="#8957e5"/><circle cx="475.4" cy="245.4" r="2.6" fill="#1f6feb"/><circle cx="475.4" cy="146.4" r="2.6" fill="#8957e5"/><circle cx="492.3" cy="235.3" r="2.6" fill="#1f6feb"/><circle cx="492.3" cy="146.4" r="2.6" fill="#8957e5"/><circle cx="509.3" cy="223.9" r="2.6" fill="#1f6feb"/><circle cx="509.3" cy="146.4" r="2.6" fill="#8957e5"/><circle cx="526.2" cy="199.2" r="2.6" fill="#1f6feb"/><circle cx="526.2" cy="139.7" r="2.6" fill="#8957e5"/><circle cx="543.1" cy="187.5" r="2.6" fill="#1f6feb"/><circle cx="543.1" cy="139.7" r="2.6" fill="#8957e5"/><circle cx="560.0" cy="174.2" r="2.6" fill="#1f6feb"/><circle cx="560.0" cy="126.3" r="2.6" fill="#8957e5"/><circle cx="577.0" cy="166.4" r="2.6" fill="#1f6feb"/><circle cx="577.0" cy="126.3" r="2.6" fill="#8957e5"/><circle cx="593.9" cy="166.4" r="2.6" fill="#1f6feb"/><circle cx="593.9" cy="126.3" r="2.6" fill="#8957e5"/><circle cx="610.8" cy="155.0" r="2.6" fill="#1f6feb"/><circle cx="610.8" cy="133.0" r="2.6" fill="#8957e5"/><circle cx="627.8" cy="155.0" r="2.6" fill="#1f6feb"/><circle cx="627.8" cy="133.0" r="2.6" fill="#8957e5"/><circle cx="644.7" cy="145.2" r="2.6" fill="#1f6feb"/><circle cx="644.7" cy="126.3" r="2.6" fill="#8957e5"/><circle cx="661.6" cy="136.5" r="2.6" fill="#1f6feb"/><circle cx="661.6" cy="119.7" r="2.6" fill="#8957e5"/><circle cx="678.6" cy="127.0" r="2.6" fill="#1f6feb"/><circle cx="678.6" cy="113.0" r="2.6" fill="#8957e5"/><circle cx="695.5" cy="115.6" r="2.6" fill="#1f6feb"/><circle cx="695.5" cy="113.0" r="2.6" fill="#8957e5"/><circle cx="712.4" cy="105.9" r="2.6" fill="#1f6feb"/><circle cx="712.4" cy="113.0" r="2.6" fill="#8957e5"/><circle cx="729.3" cy="98.7" r="2.6" fill="#1f6feb"/><circle cx="729.3" cy="113.0" r="2.6" fill="#8957e5"/><circle cx="746.3" cy="89.3" r="2.6" fill="#1f6feb"/><circle cx="746.3" cy="106.3" r="2.6" fill="#8957e5"/><circle cx="763.2" cy="80.5" r="2.6" fill="#1f6feb"/><circle cx="763.2" cy="99.6" r="2.6" fill="#8957e5"/><circle cx="780.1" cy="68.8" r="2.6" fill="#1f6feb"/><circle cx="780.1" cy="92.9" r="2.6" fill="#8957e5"/><circle cx="797.1" cy="68.8" r="2.6" fill="#1f6feb"/><circle cx="797.1" cy="86.2" r="2.6" fill="#8957e5"/><circle cx="814.0" cy="68.8" r="2.6" fill="#1f6feb"/><circle cx="814.0" cy="86.2" r="2.6" fill="#8957e5"/>
<text x="814.0" y="58.8" text-anchor="middle" font-size="12" font-weight="600" fill="#1f6feb">877</text>
<text x="814.0" y="106.2" text-anchor="middle" font-size="12" font-weight="600" fill="#8957e5">40</text>
</svg>
