<svg xmlns="http://www.w3.org/2000/svg" viewBox="0 0 900 400" font-family="-apple-system,Segoe UI,Helvetica,Arial,sans-serif">
<rect width="900" height="400" fill="rgba(0,0,0,0)" rx="12"/>
<text x="450" y="24" text-anchor="middle" font-size="15" font-weight="600" fill="#1f2328">dsh-kimino-theme · growth</text>
<circle cx="300" cy="24" r="0"/>
<text x="86" y="24" font-size="12" fill="#1f6feb">downloads (cumulative)</text>
<text x="814" y="24" text-anchor="end" font-size="12" fill="#8957e5">stars</text>
<line x1="86" y1="46" x2="814" y2="46" stroke="#8b949e" stroke-opacity="0.22" stroke-width="1"/>
<text x="76" y="50" text-anchor="end" font-size="11" fill="#1f6feb">754</text>
<text x="824" y="50" text-anchor="start" font-size="11" fill="#8957e5">41</text>
<line x1="86" y1="123" x2="814" y2="123" stroke="#8b949e" stroke-opacity="0.22" stroke-width="1"/>
<text x="76" y="127" text-anchor="end" font-size="11" fill="#1f6feb">565</text>
<text x="824" y="127" text-anchor="start" font-size="11" fill="#8957e5">31</text>
<line x1="86" y1="200" x2="814" y2="200" stroke="#8b949e" stroke-opacity="0.22" stroke-width="1"/>
<text x="76" y="204" text-anchor="end" font-size="11" fill="#1f6feb">377</text>
<text x="824" y="204" text-anchor="start" font-size="11" fill="#8957e5">21</text>
<line x1="86" y1="277" x2="814" y2="277" stroke="#8b949e" stroke-opacity="0.22" stroke-width="1"/>
<text x="76" y="281" text-anchor="end" font-size="11" fill="#1f6feb">188</text>
<text x="824" y="281" text-anchor="start" font-size="11" fill="#8957e5">10</text>
<line x1="86" y1="354" x2="814" y2="354" stroke="#8b949e" stroke-opacity="0.22" stroke-width="1"/>
<text x="76" y="358" text-anchor="end" font-size="11" fill="#1f6feb">0</text>
<text x="824" y="358" text-anchor="start" font-size="11" fill="#8957e5">0</text>
<text x="86.0" y="374" text-anchor="middle" font-size="11" fill="#8b949e">08-16</text><text x="223.7" y="374" text-anchor="middle" font-size="11" fill="#8b949e">08-23</text><text x="361.5" y="374" text-anchor="middle" font-size="11" fill="#8b949e">08-30</text><text x="499.2" y="374" text-anchor="middle" font-size="11" fill="#8b949e">09-06</text><text x="636.9" y="374" text-anchor="middle" font-size="11" fill="#8b949e">09-13</text><text x="774.6" y="374" text-anchor="middle" font-size="11" fill="#8b949e">09-20</text><text x="814.0" y="374" text-anchor="middle" font-size="11" fill="#8b949e">09-22</text>
<polyline points="86.0,354.0 105.7,354.0 125.4,354.0 145.0,354.0 164.7,354.0 184.4,354.0 204.1,354.0 223.7,354.0 243.4,354.0 263.1,354.0 282.8,309.1 302.4,298.0 322.1,288.6 341.8,277.6 361.5,267.4 381.1,258.0 400.8,258.0 420.5,247.4 440.2,247.4 459.8,238.0 479.5,228.2 499.2,217.5 518.9,217.5 538.5,217.5 558.2,204.9 577.9,190.6 597.6,159.5 617.2,144.8 636.9,128.1 656.6,118.3 676.3,118.3 695.9,104.0 715.6,104.0 735.3,91.7 755.0,80.7 774.6,68.8 794.3,68.8 814.0,68.8" fill="none" stroke="#1f6feb" stroke-width="2.4" stroke-linejoin="round" stroke-linecap="round"/>
<polyline points="86.0,354.0 105.7,346.6 125.4,294.5 145.0,249.8 164.7,235.0 184.4,227.5 204.1,220.1 223.7,212.6 243.4,205.2 263.1,182.9 282.8,182.9 302.4,175.4 322.1,160.6 341.8,153.1 361.5,153.1 381.1,145.7 400.8,145.7 420.5,138.3 440.2,138.3 459.8,130.8 479.5,123.4 499.2,123.4 518.9,123.4 538.5,123.4 558.2,123.4 577.9,123.4 597.6,115.9 617.2,115.9 636.9,101.1 656.6,101.1 676.3,101.1 695.9,108.5 715.6,108.5 735.3,101.1 755.0,93.6 774.6,86.2 794.3,86.2 814.0,86.2" fill="none" stroke="#8957e5" stroke-width="2.4" stroke-linejoin="round" stroke-linecap="round" stroke-dasharray="1 0"/>
<circle cx="86.0" cy="354.0" r="2.6" fill="#1f6feb"/><circle cx="86.0" cy="354.0" r="2.6" fill="#8957e5"/><circle cx="105.7" cy="354.0" r="2.6" fill="#1f6feb"/><circle cx="105.7" cy="346.6" r="2.6" fill="#8957e5"/><circle cx="125.4" cy="354.0" r="2.6" fill="#1f6feb"/><circle cx="125.4" cy="294.5" r="2.6" fill="#8957e5"/><circle cx="145.0" cy="354.0" r="2.6" fill="#1f6feb"/><circle cx="145.0" cy="249.8" r="2.6" fill="#8957e5"/><circle cx="164.7" cy="354.0" r="2.6" fill="#1f6feb"/><circle cx="164.7" cy="235.0" r="2.6" fill="#8957e5"/><circle cx="184.4" cy="354.0" r="2.6" fill="#1f6feb"/><circle cx="184.4" cy="227.5" r="2.6" fill="#8957e5"/><circle cx="204.1" cy="354.0" r="2.6" fill="#1f6feb"/><circle cx="204.1" cy="220.1" r="2.6" fill="#8957e5"/><circle cx="223.7" cy="354.0" r="2.6" fill="#1f6feb"/><circle cx="223.7" cy="212.6" r="2.6" fill="#8957e5"/><circle cx="243.4" cy="354.0" r="2.6" fill="#1f6feb"/><circle cx="243.4" cy="205.2" r="2.6" fill="#8957e5"/><circle cx="263.1" cy="354.0" r="2.6" fill="#1f6feb"/><circle cx="263.1" cy="182.9" r="2.6" fill="#8957e5"/><circle cx="282.8" cy="309.1" r="2.6" fill="#1f6feb"/><circle cx="282.8" cy="182.9" r="2.6" fill="#8957e5"/><circle cx="302.4" cy="298.0" r="2.6" fill="#1f6feb"/><circle cx="302.4" cy="175.4" r="2.6" fill="#8957e5"/><circle cx="322.1" cy="288.6" r="2.6" fill="#1f6feb"/><circle cx="322.1" cy="160.6" r="2.6" fill="#8957e5"/><circle cx="341.8" cy="277.6" r="2.6" fill="#1f6feb"/><circle cx="341.8" cy="153.1" r="2.6" fill="#8957e5"/><circle cx="361.5" cy="267.4" r="2.6" fill="#1f6feb"/><circle cx="361.5" cy="153.1" r="2.6" fill="#8957e5"/><circle cx="381.1" cy="258.0" r="2.6" fill="#1f6feb"/><circle cx="381.1" cy="145.7" r="2.6" fill="#8957e5"/><circle cx="400.8" cy="258.0" r="2.6" fill="#1f6feb"/><circle cx="400.8" cy="145.7" r="2.6" fill="#8957e5"/><circle cx="420.5" cy="247.4" r="2.6" fill="#1f6feb"/><circle cx="420.5" cy="138.3" r="2.6" fill="#8957e5"/><circle cx="440.2" cy="247.4" r="2.6" fill="#1f6feb"/><circle cx="440.2" cy="138.3" r="2.6" fill="#8957e5"/><circle cx="459.8" cy="238.0" r="2.6" fill="#1f6feb"/><circle cx="459.8" cy="130.8" r="2.6" fill="#8957e5"/><circle cx="479.5" cy="228.2" r="2.6" fill="#1f6feb"/><circle cx="479.5" cy="123.4" r="2.6" fill="#8957e5"/><circle cx="499.2" cy="217.5" r="2.6" fill="#1f6feb"/><circle cx="499.2" cy="123.4" r="2.6" fill="#8957e5"/><circle cx="518.9" cy="217.5" r="2.6" fill="#1f6feb"/><circle cx="518.9" cy="123.4" r="2.6" fill="#8957e5"/><circle cx="538.5" cy="217.5" r="2.6" fill="#1f6feb"/><circle cx="538.5" cy="123.4" r="2.6" fill="#8957e5"/><circle cx="558.2" cy="204.9" r="2.6" fill="#1f6feb"/><circle cx="558.2" cy="123.4" r="2.6" fill="#8957e5"/><circle cx="577.9" cy="190.6" r="2.6" fill="#1f6feb"/><circle cx="577.9" cy="123.4" r="2.6" fill="#8957e5"/><circle cx="597.6" cy="159.5" r="2.6" fill="#1f6feb"/><circle cx="597.6" cy="115.9" r="2.6" fill="#8957e5"/><circle cx="617.2" cy="144.8" r="2.6" fill="#1f6feb"/><circle cx="617.2" cy="115.9" r="2.6" fill="#8957e5"/><circle cx="636.9" cy="128.1" r="2.6" fill="#1f6feb"/><circle cx="636.9" cy="101.1" r="2.6" fill="#8957e5"/><circle cx="656.6" cy="118.3" r="2.6" fill="#1f6feb"/><circle cx="656.6" cy="101.1" r="2.6" fill="#8957e5"/><circle cx="676.3" cy="118.3" r="2.6" fill="#1f6feb"/><circle cx="676.3" cy="101.1" r="2.6" fill="#8957e5"/><circle cx="695.9" cy="104.0" r="2.6" fill="#1f6feb"/><circle cx="695.9" cy="108.5" r="2.6" fill="#8957e5"/><circle cx="715.6" cy="104.0" r="2.6" fill="#1f6feb"/><circle cx="715.6" cy="108.5" r="2.6" fill="#8957e5"/><circle cx="735.3" cy="91.7" r="2.6" fill="#1f6feb"/><circle cx="735.3" cy="101.1" r="2.6" fill="#8957e5"/><circle cx="755.0" cy="80.7" r="2.6" fill="#1f6feb"/><circle cx="755.0" cy="93.6" r="2.6" fill="#8957e5"/><circle cx="774.6" cy="68.8" r="2.6" fill="#1f6feb"/><circle cx="774.6" cy="86.2" r="2.6" fill="#8957e5"/><circle cx="794.3" cy="68.8" r="2.6" fill="#1f6feb"/><circle cx="794.3" cy="86.2" r="2.6" fill="#8957e5"/><circle cx="814.0" cy="68.8" r="2.6" fill="#1f6feb"/><circle cx="814.0" cy="86.2" r="2.6" fill="#8957e5"/>
<text x="814.0" y="58.8" text-anchor="middle" font-size="12" font-weight="600" fill="#1f6feb">698</text>
<text x="814.0" y="106.2" text-anchor="middle" font-size="12" font-weight="600" fill="#8957e5">36</text>
</svg>
