<svg xmlns="http://www.w3.org/2000/svg" viewBox="0 0 900 400" font-family="-apple-system,Segoe UI,Helvetica,Arial,sans-serif">
<rect width="900" height="400" fill="rgba(0,0,0,0)" rx="12"/>
<text x="450" y="24" text-anchor="middle" font-size="15" font-weight="600" fill="#1f2328">dsh-kimino-theme · growth</text>
<circle cx="300" cy="24" r="0"/>
<text x="86" y="24" font-size="12" fill="#1f6feb">downloads (cumulative)</text>
<text x="814" y="24" text-anchor="end" font-size="12" fill="#8957e5">stars</text>
<line x1="86" y1="46" x2="814" y2="46" stroke="#8b949e" stroke-opacity="0.22" stroke-width="1"/>
<text x="76" y="50" text-anchor="end" font-size="11" fill="#1f6feb">361</text>
<text x="824" y="50" text-anchor="start" font-size="11" fill="#8957e5">36</text>
<line x1="86" y1="123" x2="814" y2="123" stroke="#8b949e" stroke-opacity="0.22" stroke-width="1"/>
<text x="76" y="127" text-anchor="end" font-size="11" fill="#1f6feb">271</text>
<text x="824" y="127" text-anchor="start" font-size="11" fill="#8957e5">27</text>
<line x1="86" y1="200" x2="814" y2="200" stroke="#8b949e" stroke-opacity="0.22" stroke-width="1"/>
<text x="76" y="204" text-anchor="end" font-size="11" fill="#1f6feb">180</text>
<text x="824" y="204" text-anchor="start" font-size="11" fill="#8957e5">18</text>
<line x1="86" y1="277" x2="814" y2="277" stroke="#8b949e" stroke-opacity="0.22" stroke-width="1"/>
<text x="76" y="281" text-anchor="end" font-size="11" fill="#1f6feb">90</text>
<text x="824" y="281" text-anchor="start" font-size="11" fill="#8957e5">9</text>
<line x1="86" y1="354" x2="814" y2="354" stroke="#8b949e" stroke-opacity="0.22" stroke-width="1"/>
<text x="76" y="358" text-anchor="end" font-size="11" fill="#1f6feb">0</text>
<text x="824" y="358" text-anchor="start" font-size="11" fill="#8957e5">0</text>
<text x="86.0" y="374" text-anchor="middle" font-size="11" fill="#8b949e">08-16</text><text x="212.6" y="374" text-anchor="middle" font-size="11" fill="#8b949e">08-20</text><text x="339.2" y="374" text-anchor="middle" font-size="11" fill="#8b949e">08-24</text><text x="465.8" y="374" text-anchor="middle" font-size="11" fill="#8b949e">08-28</text><text x="592.4" y="374" text-anchor="middle" font-size="11" fill="#8b949e">09-01</text><text x="719.0" y="374" text-anchor="middle" font-size="11" fill="#8b949e">09-05</text><text x="814.0" y="374" text-anchor="middle" font-size="11" fill="#8b949e">09-08</text>
<polyline points="86.0,354.0 117.7,354.0 149.3,354.0 181.0,354.0 212.6,354.0 244.3,354.0 275.9,354.0 307.6,354.0 339.2,354.0 370.9,354.0 402.5,260.1 434.2,237.0 465.8,217.4 497.5,194.3 529.1,173.0 560.8,153.3 592.4,153.3 624.1,131.1 655.7,131.1 687.4,111.5 719.0,91.0 750.7,68.8 782.3,68.8 814.0,68.8" fill="none" stroke="#1f6feb" stroke-width="2.4" stroke-linejoin="round" stroke-linecap="round"/>
<polyline points="86.0,354.0 117.7,345.4 149.3,284.9 181.0,233.0 212.6,215.8 244.3,207.1 275.9,198.5 307.6,189.8 339.2,181.2 370.9,155.3 402.5,155.3 434.2,146.7 465.8,129.4 497.5,120.7 529.1,120.7 560.8,112.1 592.4,112.1 624.1,103.5 655.7,103.5 687.4,94.8 719.0,86.2 750.7,86.2 782.3,86.2 814.0,86.2" fill="none" stroke="#8957e5" stroke-width="2.4" stroke-linejoin="round" stroke-linecap="round" stroke-dasharray="1 0"/>
<circle cx="86.0" cy="354.0" r="2.6" fill="#1f6feb"/><circle cx="86.0" cy="354.0" r="2.6" fill="#8957e5"/><circle cx="117.7" cy="354.0" r="2.6" fill="#1f6feb"/><circle cx="117.7" cy="345.4" r="2.6" fill="#8957e5"/><circle cx="149.3" cy="354.0" r="2.6" fill="#1f6feb"/><circle cx="149.3" cy="284.9" r="2.6" fill="#8957e5"/><circle cx="181.0" cy="354.0" r="2.6" fill="#1f6feb"/><circle cx="181.0" cy="233.0" r="2.6" fill="#8957e5"/><circle cx="212.6" cy="354.0" r="2.6" fill="#1f6feb"/><circle cx="212.6" cy="215.8" r="2.6" fill="#8957e5"/><circle cx="244.3" cy="354.0" r="2.6" fill="#1f6feb"/><circle cx="244.3" cy="207.1" r="2.6" fill="#8957e5"/><circle cx="275.9" cy="354.0" r="2.6" fill="#1f6feb"/><circle cx="275.9" cy="198.5" r="2.6" fill="#8957e5"/><circle cx="307.6" cy="354.0" r="2.6" fill="#1f6feb"/><circle cx="307.6" cy="189.8" r="2.6" fill="#8957e5"/><circle cx="339.2" cy="354.0" r="2.6" fill="#1f6feb"/><circle cx="339.2" cy="181.2" r="2.6" fill="#8957e5"/><circle cx="370.9" cy="354.0" r="2.6" fill="#1f6feb"/><circle cx="370.9" cy="155.3" r="2.6" fill="#8957e5"/><circle cx="402.5" cy="260.1" r="2.6" fill="#1f6feb"/><circle cx="402.5" cy="155.3" r="2.6" fill="#8957e5"/><circle cx="434.2" cy="237.0" r="2.6" fill="#1f6feb"/><circle cx="434.2" cy="146.7" r="2.6" fill="#8957e5"/><circle cx="465.8" cy="217.4" r="2.6" fill="#1f6feb"/><circle cx="465.8" cy="129.4" r="2.6" fill="#8957e5"/><circle cx="497.5" cy="194.3" r="2.6" fill="#1f6feb"/><circle cx="497.5" cy="120.7" r="2.6" fill="#8957e5"/><circle cx="529.1" cy="173.0" r="2.6" fill="#1f6feb"/><circle cx="529.1" cy="120.7" r="2.6" fill="#8957e5"/><circle cx="560.8" cy="153.3" r="2.6" fill="#1f6feb"/><circle cx="560.8" cy="112.1" r="2.6" fill="#8957e5"/><circle cx="592.4" cy="153.3" r="2.6" fill="#1f6feb"/><circle cx="592.4" cy="112.1" r="2.6" fill="#8957e5"/><circle cx="624.1" cy="131.1" r="2.6" fill="#1f6feb"/><circle cx="624.1" cy="103.5" r="2.6" fill="#8957e5"/><circle cx="655.7" cy="131.1" r="2.6" fill="#1f6feb"/><circle cx="655.7" cy="103.5" r="2.6" fill="#8957e5"/><circle cx="687.4" cy="111.5" r="2.6" fill="#1f6feb"/><circle cx="687.4" cy="94.8" r="2.6" fill="#8957e5"/><circle cx="719.0" cy="91.0" r="2.6" fill="#1f6feb"/><circle cx="719.0" cy="86.2" r="2.6" fill="#8957e5"/><circle cx="750.7" cy="68.8" r="2.6" fill="#1f6feb"/><circle cx="750.7" cy="86.2" r="2.6" fill="#8957e5"/><circle cx="782.3" cy="68.8" r="2.6" fill="#1f6feb"/><circle cx="782.3" cy="86.2" r="2.6" fill="#8957e5"/><circle cx="814.0" cy="68.8" r="2.6" fill="#1f6feb"/><circle cx="814.0" cy="86.2" r="2.6" fill="#8957e5"/>
<text x="814.0" y="58.8" text-anchor="middle" font-size="12" font-weight="600" fill="#1f6feb">334</text>
<text x="814.0" y="106.2" text-anchor="middle" font-size="12" font-weight="600" fill="#8957e5">31</text>
</svg>
