<svg xmlns="http://www.w3.org/2000/svg" viewBox="0 0 900 400" font-family="-apple-system,Segoe UI,Helvetica,Arial,sans-serif">
<rect width="900" height="400" fill="rgba(0,0,0,0)" rx="12"/>
<text x="450" y="24" text-anchor="middle" font-size="15" font-weight="600" fill="#1f2328">dsh-kimino-theme · growth</text>
<circle cx="300" cy="24" r="0"/>
<text x="86" y="24" font-size="12" fill="#1f6feb">downloads (cumulative)</text>
<text x="814" y="24" text-anchor="end" font-size="12" fill="#8957e5">stars</text>
<line x1="86" y1="46" x2="814" y2="46" stroke="#8b949e" stroke-opacity="0.22" stroke-width="1"/>
<text x="76" y="50" text-anchor="end" font-size="11" fill="#1f6feb">254</text>
<text x="824" y="50" text-anchor="start" font-size="11" fill="#8957e5">33</text>
<line x1="86" y1="123" x2="814" y2="123" stroke="#8b949e" stroke-opacity="0.22" stroke-width="1"/>
<text x="76" y="127" text-anchor="end" font-size="11" fill="#1f6feb">190</text>
<text x="824" y="127" text-anchor="start" font-size="11" fill="#8957e5">25</text>
<line x1="86" y1="200" x2="814" y2="200" stroke="#8b949e" stroke-opacity="0.22" stroke-width="1"/>
<text x="76" y="204" text-anchor="end" font-size="11" fill="#1f6feb">127</text>
<text x="824" y="204" text-anchor="start" font-size="11" fill="#8957e5">17</text>
<line x1="86" y1="277" x2="814" y2="277" stroke="#8b949e" stroke-opacity="0.22" stroke-width="1"/>
<text x="76" y="281" text-anchor="end" font-size="11" fill="#1f6feb">63</text>
<text x="824" y="281" text-anchor="start" font-size="11" fill="#8957e5">8</text>
<line x1="86" y1="354" x2="814" y2="354" stroke="#8b949e" stroke-opacity="0.22" stroke-width="1"/>
<text x="76" y="358" text-anchor="end" font-size="11" fill="#1f6feb">0</text>
<text x="824" y="358" text-anchor="start" font-size="11" fill="#8957e5">0</text>
<text x="86.0" y="374" text-anchor="middle" font-size="11" fill="#8b949e">08-16</text><text x="247.8" y="374" text-anchor="middle" font-size="11" fill="#8b949e">08-20</text><text x="409.6" y="374" text-anchor="middle" font-size="11" fill="#8b949e">08-24</text><text x="571.3" y="374" text-anchor="middle" font-size="11" fill="#8b949e">08-28</text><text x="733.1" y="374" text-anchor="middle" font-size="11" fill="#8b949e">09-01</text><text x="814.0" y="374" text-anchor="middle" font-size="11" fill="#8b949e">09-03</text>
<polyline points="86.0,354.0 126.4,354.0 166.9,354.0 207.3,354.0 247.8,354.0 288.2,354.0 328.7,354.0 369.1,354.0 409.6,354.0 450.0,354.0 490.4,220.5 530.9,187.7 571.3,159.8 611.8,127.1 652.2,96.7 692.7,68.8 733.1,68.8 773.6,68.8 814.0,68.8" fill="none" stroke="#1f6feb" stroke-width="2.4" stroke-linejoin="round" stroke-linecap="round"/>
<polyline points="86.0,354.0 126.4,344.8 166.9,280.1 207.3,224.7 247.8,206.2 288.2,197.0 328.7,187.8 369.1,178.5 409.6,169.3 450.0,141.6 490.4,141.6 530.9,132.4 571.3,113.9 611.8,104.6 652.2,104.6 692.7,95.4 733.1,95.4 773.6,86.2 814.0,86.2" fill="none" stroke="#8957e5" stroke-width="2.4" stroke-linejoin="round" stroke-linecap="round" stroke-dasharray="1 0"/>
<circle cx="86.0" cy="354.0" r="2.6" fill="#1f6feb"/><circle cx="86.0" cy="354.0" r="2.6" fill="#8957e5"/><circle cx="126.4" cy="354.0" r="2.6" fill="#1f6feb"/><circle cx="126.4" cy="344.8" r="2.6" fill="#8957e5"/><circle cx="166.9" cy="354.0" r="2.6" fill="#1f6feb"/><circle cx="166.9" cy="280.1" r="2.6" fill="#8957e5"/><circle cx="207.3" cy="354.0" r="2.6" fill="#1f6feb"/><circle cx="207.3" cy="224.7" r="2.6" fill="#8957e5"/><circle cx="247.8" cy="354.0" r="2.6" fill="#1f6feb"/><circle cx="247.8" cy="206.2" r="2.6" fill="#8957e5"/><circle cx="288.2" cy="354.0" r="2.6" fill="#1f6feb"/><circle cx="288.2" cy="197.0" r="2.6" fill="#8957e5"/><circle cx="328.7" cy="354.0" r="2.6" fill="#1f6feb"/><circle cx="328.7" cy="187.8" r="2.6" fill="#8957e5"/><circle cx="369.1" cy="354.0" r="2.6" fill="#1f6feb"/><circle cx="369.1" cy="178.5" r="2.6" fill="#8957e5"/><circle cx="409.6" cy="354.0" r="2.6" fill="#1f6feb"/><circle cx="409.6" cy="169.3" r="2.6" fill="#8957e5"/><circle cx="450.0" cy="354.0" r="2.6" fill="#1f6feb"/><circle cx="450.0" cy="141.6" r="2.6" fill="#8957e5"/><circle cx="490.4" cy="220.5" r="2.6" fill="#1f6feb"/><circle cx="490.4" cy="141.6" r="2.6" fill="#8957e5"/><circle cx="530.9" cy="187.7" r="2.6" fill="#1f6feb"/><circle cx="530.9" cy="132.4" r="2.6" fill="#8957e5"/><circle cx="571.3" cy="159.8" r="2.6" fill="#1f6feb"/><circle cx="571.3" cy="113.9" r="2.6" fill="#8957e5"/><circle cx="611.8" cy="127.1" r="2.6" fill="#1f6feb"/><circle cx="611.8" cy="104.6" r="2.6" fill="#8957e5"/><circle cx="652.2" cy="96.7" r="2.6" fill="#1f6feb"/><circle cx="652.2" cy="104.6" r="2.6" fill="#8957e5"/><circle cx="692.7" cy="68.8" r="2.6" fill="#1f6feb"/><circle cx="692.7" cy="95.4" r="2.6" fill="#8957e5"/><circle cx="733.1" cy="68.8" r="2.6" fill="#1f6feb"/><circle cx="733.1" cy="95.4" r="2.6" fill="#8957e5"/><circle cx="773.6" cy="68.8" r="2.6" fill="#1f6feb"/><circle cx="773.6" cy="86.2" r="2.6" fill="#8957e5"/><circle cx="814.0" cy="68.8" r="2.6" fill="#1f6feb"/><circle cx="814.0" cy="86.2" r="2.6" fill="#8957e5"/>
<text x="814.0" y="58.8" text-anchor="middle" font-size="12" font-weight="600" fill="#1f6feb">235</text>
<text x="814.0" y="106.2" text-anchor="middle" font-size="12" font-weight="600" fill="#8957e5">29</text>
</svg>
